<?xml version="1.0" encoding="UTF-8"?>
<svg id="Vrstva_1" xmlns="http://www.w3.org/2000/svg" version="1.1" viewBox="141.73 141.73 1085.7 283.47">
  <!-- Generator: Adobe Illustrator 30.0.0, SVG Export Plug-In . SVG Version: 2.1.1 Build 123)  -->
  <defs>
    <style>
      .st0 {
        fill: #d2e178;
      }
    </style>
  </defs>
  <path class="st0" d="M141.73,421.26h54.33l34.25-224.41h25.2l34.25,224.41h55.12l-44.09-275.59h-114.96l-44.09,275.59ZM456.57,425.2c53.94,0,96.85-38.58,96.85-87.8,0-19.68-7.09-38.58-20.08-53.94,12.99-15.35,20.08-34.25,20.08-53.94,0-49.21-42.91-87.79-96.85-87.79s-96.85,38.58-96.85,87.79c0,19.68,7.09,38.58,20.08,53.94-12.99,15.35-20.08,34.25-20.08,53.94,0,49.21,42.91,87.8,96.85,87.8M456.57,374.02c-24.41,0-44.49-20.08-44.49-45.28,0-13.39,8.27-29.13,23.62-45.28-15.35-16.14-23.62-31.89-23.62-45.28,0-25.2,20.08-45.27,44.49-45.27s44.49,20.08,44.49,45.27c0,13.39-8.27,29.13-23.62,45.28,15.35,16.14,23.62,31.89,23.62,45.28,0,25.2-20.08,45.28-44.49,45.28M678.62,425.2c54.33,0,96.85-42.13,96.85-95.67v-92.13c0-53.54-42.52-95.67-96.85-95.67s-96.85,42.13-96.85,95.67v92.13c0,53.54,42.52,95.67,96.85,95.67M678.62,374.02c-24.8,0-44.09-19.68-44.09-44.49v-92.13c0-24.8,19.29-44.49,44.09-44.49s44.09,19.68,44.09,44.49v92.13c0,24.8-19.29,44.49-44.09,44.49M904.6,425.2c54.33,0,96.85-42.13,96.85-95.67v-92.13c0-53.54-42.52-95.67-96.85-95.67s-96.85,42.13-96.85,95.67v92.13c0,53.54,42.52,95.67,96.85,95.67M904.6,374.02c-24.8,0-44.09-19.68-44.09-44.49v-92.13c0-24.8,19.29-44.49,44.09-44.49s44.09,19.68,44.09,44.49v92.13c0,24.8-19.29,44.49-44.09,44.49M1130.58,425.2c54.33,0,96.85-42.13,96.85-95.67v-92.13c0-53.54-42.52-95.67-96.85-95.67s-96.85,42.13-96.85,95.67v92.13c0,53.54,42.52,95.67,96.85,95.67M1130.58,374.02c-24.8,0-44.09-19.68-44.09-44.49v-92.13c0-24.8,19.29-44.49,44.09-44.49s44.09,19.68,44.09,44.49v92.13c0,24.8-19.29,44.49-44.09,44.49"/>
</svg>